<svg xmlns="http://www.w3.org/2000/svg" viewBox="0 0 24 24"><path fill="#000000" opacity=".4" d="M9.5 3h-5A1.5 1.5 0 0 0 3 4.5v5A1.5 1.5 0 0 0 4.5 11h5A1.5 1.5 0 0 0 11 9.5v-5A1.5 1.5 0 0 0 9.5 3Zm10 0h-5A1.5 1.5 0 0 0 13 4.5v5A1.5 1.5 0 0 0 14.5 11h5A1.5 1.5 0 0 0 21 9.5v-5A1.5 1.5 0 0 0 19.5 3Z"/><path fill="#000000" d="M9.5 13h-5A1.5 1.5 0 0 0 3 14.5v5A1.5 1.5 0 0 0 4.5 21h5A1.5 1.5 0 0 0 11 19.5v-5A1.5 1.5 0 0 0 9.5 13Zm10 0h-5A1.5 1.5 0 0 0 13 14.5v5A1.5 1.5 0 0 0 14.5 21h5A1.5 1.5 0 0 0 21 19.5v-5A1.5 1.5 0 0 0 19.5 13Z"/></svg>